<?xml version="1.0" encoding="UTF-8"?>
<svg version="1.1" xmlns="http://www.w3.org/2000/svg" width="225" height="205">
<path d="M0 0 C11.13178651 0.49292044 19.36465581 5.91669112 26.875 13.8125 C36.01160008 24.58355448 38.31208704 35.46117832 38.30078125 49.25 C38.30506638 50.42151611 38.3093515 51.59303223 38.31376648 52.80004883 C38.31949264 55.27440752 38.32002273 57.74878304 38.31567383 60.22314453 C38.31253339 63.96026308 38.33592803 67.696574 38.36132812 71.43359375 C38.4271206 95.94011443 35.4956087 120.13425327 18 139 C17.34 139 16.68 139 16 139 C16 139.66 16 140.32 16 141 C15.34 141 14.68 141 14 141 C13.75507813 141.58265625 13.51015625 142.1653125 13.2578125 142.765625 C7.46172792 153.06177525 -9.61560849 160.28335697 -20.67071533 163.41995239 C-29.98850663 165.74030534 -39.07130609 166.27868027 -48.640625 166.1953125 C-50.51291779 166.19106766 -50.51291779 166.19106766 -52.42303467 166.18673706 C-56.36545868 166.17564322 -60.30764596 166.15055899 -64.25 166.125 C-66.94140038 166.11381319 -69.63280706 166.10560654 -72.32421875 166.09765625 C-78.88297458 166.07745059 -85.44122583 166.03828078 -92 166 C-92 154.45 -92 142.9 -92 131 C-88.55304688 130.97421875 -85.10609375 130.9484375 -81.5546875 130.921875 C-78.17195892 130.88333138 -74.78937647 130.83821091 -71.40673828 130.79248047 C-69.0773836 130.76446252 -66.74793723 130.74315388 -64.41845703 130.72900391 C-40.76338563 130.79745128 -40.76338563 130.79745128 -19.98828125 120.48828125 C-18 119 -18 119 -15 118 C-15 117.34 -15 116.68 -15 116 C-14.34 116 -13.68 116 -13 116 C-12.773125 115.34 -12.54625 114.68 -12.3125 114 C-11.21206634 111.48472307 -10.06779936 109.5170171 -8.5625 107.25 C-3.0585192 98.64495626 -1.8636093 89.37105627 -1.81054688 79.34838867 C-1.80225357 78.50055817 -1.79396027 77.65272766 -1.78541565 76.77920532 C-1.76808385 74.9475352 -1.75289863 73.11584376 -1.73963928 71.28413963 C-1.71853961 68.38910126 -1.69152734 65.49417114 -1.66296387 62.59919739 C-1.59328484 55.4157961 -1.53358621 48.23231855 -1.47393799 41.04882812 C-1.42309533 34.96619686 -1.36832937 28.8836267 -1.30812073 22.8010807 C-1.2814744 19.94204625 -1.26071103 17.08300624 -1.2401123 14.22392273 C-1.2235197 12.48415855 -1.20664879 10.744397 -1.18945312 9.00463867 C-1.18526871 8.20414597 -1.18108429 7.40365326 -1.17677307 6.5789032 C-1.11385561 1.11385561 -1.11385561 1.11385561 0 0 Z " fill="#010101" transform="translate(169,23)"/>
<path d="M0 0 C12.54 0 25.08 0 38 0 C39.22384942 2.44769883 39.10842703 3.98463706 39.08229065 6.72024536 C39.07525116 7.71586487 39.06821167 8.71148437 39.06095886 9.73727417 C39.04801285 10.83347076 39.03506683 11.92966736 39.02172852 13.05908203 C39.01212097 14.21029541 39.00251343 15.36150879 38.99261475 16.54760742 C38.95953007 20.36773617 38.9192338 24.1877539 38.87890625 28.0078125 C38.85461439 30.65053918 38.83077037 33.29327002 38.80735779 35.93600464 C38.7511903 42.19044103 38.6898376 48.44481546 38.62663645 54.6991843 C38.55494359 61.81876859 38.48900916 68.93840253 38.42356598 76.05804658 C38.28879906 90.70542812 38.14677602 105.35273395 38 120 C33.23133605 120.16791607 28.46250162 120.32844326 23.69335938 120.48217773 C22.0715468 120.53549272 20.44979885 120.59081357 18.828125 120.64819336 C16.4949334 120.73039833 14.16160324 120.80534775 11.828125 120.87890625 C11.10506165 120.90594131 10.38199829 120.93297638 9.63702393 120.96083069 C6.12578264 121.06453813 3.44793769 120.86198442 0 120 C0 80.4 0 40.8 0 0 Z " fill="#010101" transform="translate(19,69)"/>
<path d="M0 0 C1.74101234 -0.00284752 1.74101234 -0.00284752 3.51719666 -0.00575256 C7.31606002 -0.00942835 11.11472815 0.00119294 14.91357422 0.01245117 C17.56346925 0.01364424 20.2133563 0.01414662 22.86325073 0.01383972 C28.39567457 0.0147719 33.92804305 0.02340216 39.46044922 0.03710938 C45.86074837 0.05290801 52.26098735 0.05810458 58.66130459 0.05737382 C64.82989562 0.05676465 70.99846387 0.0619641 77.16704941 0.07016563 C79.78984331 0.07335613 82.41263899 0.07532059 85.03543472 0.07605934 C88.68381065 0.07821417 92.33210928 0.08693727 95.98046875 0.09765625 C97.07232986 0.09720306 98.16419098 0.09674988 99.28913879 0.09628296 C100.27590103 0.10054794 101.26266327 0.10481293 102.27932739 0.10920715 C103.14166552 0.110883 104.00400364 0.11255884 104.89247322 0.11428547 C106.84326172 0.24291992 106.84326172 0.24291992 107.84326172 1.24291992 C107.9430923 3.2304902 107.97406925 5.22159512 107.97607422 7.21166992 C107.97736328 8.42209961 107.97865234 9.6325293 107.97998047 10.87963867 C107.97611328 12.15452148 107.97224609 13.4294043 107.96826172 14.74291992 C107.97212891 16.01780273 107.97599609 17.29268555 107.97998047 18.60620117 C107.97804687 20.4218457 107.97804687 20.4218457 107.97607422 22.27416992 C107.97494629 23.3937207 107.97381836 24.51327148 107.97265625 25.66674805 C107.84326172 28.24291992 107.84326172 28.24291992 106.84326172 29.24291992 C105.17301503 29.33906125 103.49867896 29.36479715 101.82566833 29.36317444 C100.7388678 29.3645491 99.65206726 29.36592377 98.53233337 29.36734009 C97.32968338 29.36374481 96.12703339 29.36014954 94.88793945 29.35644531 C93.62958282 29.35659134 92.3712262 29.35673737 91.07473755 29.35688782 C87.61414919 29.35717577 84.1535952 29.35127941 80.69301486 29.34431386 C77.08018081 29.33807995 73.46734605 29.33747649 69.85450745 29.33628845 C63.00862664 29.33317525 56.16276172 29.324962 49.31688792 29.31493896 C41.52499583 29.30377749 33.73310299 29.29826729 25.94120491 29.29324353 C9.90854786 29.28277938 -6.12409319 29.26518015 -22.15673828 29.24291992 C-23.40724115 26.74191418 -23.18667277 25.23948941 -23.03564453 22.45385742 C-22.98730469 21.5128418 -22.93896484 20.57182617 -22.88916016 19.60229492 C-22.83308594 18.61745117 -22.77701172 17.63260742 -22.71923828 16.61791992 C-22.66703125 15.6253418 -22.61482422 14.63276367 -22.56103516 13.61010742 C-22.43114879 11.15407425 -22.29617664 8.69842632 -22.15673828 6.24291992 C-22.81673828 6.24291992 -23.47673828 6.24291992 -24.15673828 6.24291992 C-23.82673828 4.92291992 -23.49673828 3.60291992 -23.15673828 2.24291992 C-15.36151574 0.55314421 -7.96378985 -0.04176165 0 0 Z " fill="#010101" transform="translate(41.15673828125,22.757080078125)"/>
<path d="M0 0 C10.89 0 21.78 0 33 0 C33.04010881 16.39113341 33.04010881 16.39113341 33.04882812 23.36328125 C33.05481228 28.12582509 33.06190122 32.88834976 33.07543945 37.65087891 C33.08628291 41.48933243 33.09227994 45.3277654 33.09487724 49.16623306 C33.09672885 50.63269499 33.10034444 52.09915577 33.10573006 53.56560898 C33.11295983 55.61521612 33.11399012 57.66473768 33.11352539 59.71435547 C33.115746 60.88239716 33.11796661 62.05043884 33.12025452 63.25387573 C33 66 33 66 32 68 C21.44 68 10.88 68 0 68 C0 45.56 0 23.12 0 0 Z " fill="#030203" transform="translate(77,69)"/>
<path d="M0 0 C12.54 0 25.08 0 38 0 C38 0.99 38 1.98 38 3 C37.34 3 36.68 3 36 3 C36 2.34 36 1.68 36 1 C24.78 1.33 13.56 1.66 2 2 C2.33 40.61 2.66 79.22 3 119 C2.01 118.67 1.02 118.34 0 118 C0 79.06 0 40.12 0 0 Z " fill="#0F0F0F" transform="translate(19,69)"/>
<path d="M0 0 C1.32 0 2.64 0 4 0 C4 7.59 4 15.18 4 23 C66.37 23.495 66.37 23.495 130 24 C130 18.06 130 12.12 130 6 C130.66 5.67 131.32 5.34 132 5 C132.02888514 8.14581423 132.04675923 11.29159469 132.0625 14.4375 C132.07087891 15.33533203 132.07925781 16.23316406 132.08789062 17.15820312 C132.09111328 18.01220703 132.09433594 18.86621094 132.09765625 19.74609375 C132.10289307 20.53685303 132.10812988 21.3276123 132.11352539 22.14233398 C132 24 132 24 131 25 C129.32975331 25.09614133 127.65541724 25.12187722 125.98240662 25.12025452 C124.89560608 25.12162918 123.80880554 25.12300385 122.68907166 25.12442017 C121.48642166 25.12082489 120.28377167 25.11722961 119.04467773 25.11352539 C117.78632111 25.11367142 116.52796448 25.11381744 115.23147583 25.1139679 C111.77088747 25.11425585 108.31033348 25.10835949 104.84975314 25.10139394 C101.23691909 25.09516003 97.62408433 25.09455657 94.01124573 25.09336853 C87.16536492 25.09025532 80.3195 25.08204208 73.4736262 25.07201904 C65.68173411 25.06085757 57.88984127 25.05534737 50.09794319 25.05032361 C34.06528614 25.03985946 18.0326451 25.02226023 2 25 C0.74949713 22.49899426 0.97006551 20.99656948 1.12109375 18.2109375 C1.16943359 17.26992188 1.21777344 16.32890625 1.26757812 15.359375 C1.32365234 14.37453125 1.37972656 13.3896875 1.4375 12.375 C1.48970703 11.38242187 1.54191406 10.38984375 1.59570312 9.3671875 C1.72558949 6.91115432 1.86056164 4.4555064 2 2 C1.34 2 0.68 2 0 2 C0 1.34 0 0.68 0 0 Z " fill="#141415" transform="translate(17,27)"/>
<path d="M0 0 C0.66 0.33 1.32 0.66 2 1 C3.11855312 5.62460501 3.12351915 10.21308723 3.06933594 14.94213867 C3.06454727 15.71538483 3.05975861 16.48863098 3.05482483 17.28530884 C3.03721134 19.82961486 3.01143526 22.37374669 2.984375 24.91796875 C2.96766152 26.69908094 2.95099976 28.48019362 2.93438721 30.26130676 C2.89797079 33.99269997 2.85676582 37.72400862 2.81298828 41.45532227 C2.75815237 46.21155185 2.72150867 50.9677326 2.68935776 55.7241621 C2.66133832 59.40398496 2.62027564 63.08358216 2.57575226 66.76323891 C2.55669417 68.51527744 2.54232889 70.26737411 2.53295135 72.0194912 C2.46063339 84.3019256 1.25912685 94.73044247 -4 106 C-4.66 106 -5.32 106 -6 106 C-5.80664062 105.46632813 -5.61328125 104.93265625 -5.4140625 104.3828125 C-5.15367187 103.63773437 -4.89328125 102.89265625 -4.625 102.125 C-4.24214844 101.04605469 -4.24214844 101.04605469 -3.8515625 99.9453125 C-0.6778446 88.9683249 -0.65551401 78.33800696 -0.5859375 66.9921875 C-0.56720247 65.0559102 -0.54762736 63.11964086 -0.5272522 61.18338013 C-0.47617157 56.11678792 -0.4364178 51.05016931 -0.39910889 45.98345947 C-0.35891744 40.80140786 -0.30789455 35.61946379 -0.2578125 30.4375 C-0.16133861 20.29174247 -0.07684349 10.14592388 0 0 Z " fill="#151414" transform="translate(168,24)"/>
<path d="M0 0 C7.72988304 3.30542883 12.43085665 11.06311588 15.9921875 18.34765625 C18.92263134 26.05994837 19.3074898 33.06808401 19.30078125 41.25 C19.30506638 42.42151611 19.3093515 43.59303223 19.31376648 44.80004883 C19.31949264 47.27440752 19.32002273 49.74878304 19.31567383 52.22314453 C19.31253339 55.96026308 19.33592803 59.696574 19.36132812 63.43359375 C19.39299197 75.95366575 19.12336213 87.82326016 16 100 C15.34 100 14.68 100 14 100 C13.74409596 92.70673497 13.74409596 92.70673497 15 89.23828125 C16.74195629 83.24536795 16.24463616 76.93581052 16.1953125 70.75390625 C16.19157695 69.37385769 16.18873254 67.99380645 16.18673706 66.61375427 C16.17914324 63.00192798 16.15953194 59.39026551 16.1373291 55.77850342 C16.11677846 52.08478002 16.10771573 48.39102986 16.09765625 44.69726562 C16.07628148 37.4647695 16.0421977 30.23240781 16 23 C15.34 23 14.68 23 14 23 C13.608125 22.030625 13.21625 21.06125 12.8125 20.0625 C9.52411999 12.45620046 5.59829884 6.11907082 0 0 Z " fill="#181616" transform="translate(188,31)"/>
<path d="M0 0 C12.54 0 25.08 0 38 0 C38 0.99 38 1.98 38 3 C37.34 3 36.68 3 36 3 C36 2.34 36 1.68 36 1 C24.78 1.33 13.56 1.66 2 2 C2.03928989 9.82218003 2.03928989 9.82218003 2.09008789 17.64428711 C2.10570796 23.85250929 1.82876249 29.8462754 1 36 C0.67 36 0.34 36 0 36 C0 24.12 0 12.24 0 0 Z " fill="#121212" transform="translate(19,69)"/>
<path d="M0 0 C0.33 0 0.66 0 1 0 C2.26750669 6.79663036 2.11139726 13.54298684 2.0625 20.4375 C2.05798828 21.64599609 2.05347656 22.85449219 2.04882812 24.09960938 C2.03710145 27.06645789 2.02068896 30.0332027 2 33 C1.34 33 0.68 33 0 33 C-0.66 31.35 -1.32 29.7 -2 28 C-1.67 27.67 -1.34 27.34 -1 27 C-0.92478254 25.16939495 -0.91685252 23.3359396 -0.9375 21.50390625 C-0.94523437 20.38822266 -0.95296875 19.27253906 -0.9609375 18.12304688 C-0.98693632 15.75325474 -1.01297784 13.38346307 -1.0390625 11.01367188 C-1.04679687 9.89669922 -1.05453125 8.77972656 -1.0625 7.62890625 C-1.07410156 6.59838135 -1.08570312 5.56785645 -1.09765625 4.50610352 C-1 2 -1 2 0 0 Z " fill="#0A0708" transform="translate(108,102)"/>
<path d="M0 0 C0.66 0 1.32 0 2 0 C2.16727437 4.25392767 2.32786758 8.50803809 2.48217773 12.76245117 C2.53566237 14.21076301 2.59099659 15.65900775 2.64819336 17.10717773 C2.72992512 19.18458582 2.80507768 21.2621417 2.87890625 23.33984375 C2.9260376 24.59144287 2.97316895 25.84304199 3.02172852 27.13256836 C3 30 3 30 2 31 C4.97 31.33 7.94 31.66 11 32 C11 32.33 11 32.66 11 33 C7.37 33 3.74 33 0 33 C0 22.11 0 11.22 0 0 Z " fill="#111111" transform="translate(77,156)"/>
<path d="M0 0 C0.33 0 0.66 0 1 0 C1.61916858 28.93263641 1.61916858 28.93263641 -2 43 C-2.66 43 -3.32 43 -4 43 C-4.25343189 35.77719113 -4.25343189 35.77719113 -3.0625 32.125 C-1.24819618 26.1355436 -1.25725089 19.76937715 -0.875 13.5625 C-0.78863281 12.25861328 -0.70226562 10.95472656 -0.61328125 9.61132812 C-0.40206819 6.40793008 -0.19785972 3.20424591 0 0 Z " fill="#0F0C0D" transform="translate(206,88)"/>
<path d="M0 0 C1.32 0 2.64 0 4 0 C4 7.59 4 15.18 4 23 C3.01 23 2.02 23 1 23 C1.33 16.07 1.66 9.14 2 2 C1.34 2 0.68 2 0 2 C0 1.34 0 0.68 0 0 Z " fill="#0A0A0A" transform="translate(17,27)"/>
<path d="M0 0 C8.39009279 3.60643187 12.82820843 11.85448665 16.1875 19.91015625 C16.455625 20.59980469 16.72375 21.28945313 17 22 C16.01 22.33 15.02 22.66 14 23 C13.608125 22.030625 13.21625 21.06125 12.8125 20.0625 C9.52411999 12.45620046 5.59829884 6.11907082 0 0 Z " fill="#0F0F0F" transform="translate(188,31)"/>
<path d="M0 0 C12.54 0 25.08 0 38 0 C38 0.99 38 1.98 38 3 C37.34 3 36.68 3 36 3 C36 2.34 36 1.68 36 1 C24.12 1.33 12.24 1.66 0 2 C0 1.34 0 0.68 0 0 Z " fill="#191919" transform="translate(19,69)"/>
<path d="M0 0 C-1.24976756 3.65316671 -1.67098753 4.78065836 -5 7 C-5.66 6.34 -6.32 5.68 -7 5 C-2.25 0 -2.25 0 0 0 Z " fill="#060606" transform="translate(193,152)"/>
<path d="M0 0 C1.32 0 2.64 0 4 0 C4 2.64 4 5.28 4 8 C2 5 2 5 2 2 C1.34 2 0.68 2 0 2 C0 1.34 0 0.68 0 0 Z " fill="#474748" transform="translate(17,27)"/>
</svg>
