<svg xmlns="http://www.w3.org/2000/svg" width="225" height="205"><path d="M169 23c11.132.493 19.365 5.917 26.875 13.813 9.137 10.77 11.437 21.648 11.426 35.437l.013 3.55q.008 3.712.002 7.423c-.003 3.737.02 7.474.045 11.21.066 24.507-2.865 48.701-20.361 67.567h-2v2h-2l-.742 1.766c-5.796 10.296-22.874 17.517-33.929 20.654-9.318 2.32-18.4 2.859-27.97 2.775l-3.782-.008a3109 3109 0 0 1-11.827-.062q-4.037-.017-8.074-.027c-6.559-.02-13.117-.06-19.676-.098v-35l10.445-.078q5.075-.06 10.148-.13 3.495-.042 6.989-.063c23.655.068 23.655.068 44.43-10.24C151 142 151 142 154 141v-2h2l.688-2c1.1-2.515 2.244-4.483 3.75-6.75 5.503-8.605 6.698-17.879 6.751-27.902l.026-2.569q.026-2.747.045-5.495.032-4.343.077-8.685c.07-7.183.13-14.367.19-21.55q.075-9.124.165-18.248.038-4.288.068-8.577l.05-5.22.013-2.425c.063-5.465.063-5.465 1.177-6.579M19 69h38c1.224 2.448 1.108 3.985 1.082 6.72l-.021 3.017-.04 3.322-.028 3.489c-.033 3.82-.074 7.64-.114 11.46l-.072 7.928q-.085 9.382-.18 18.763-.107 10.68-.203 21.359A53598 53598 0 0 1 57 189q-7.153.252-14.307.482-2.432.08-4.865.166-3.5.122-7 .23l-2.191.083c-3.511.104-6.19-.099-9.637-.961zm22.157-46.243 3.517-.006c3.799-.003 7.597.007 11.396.019h7.95q8.298.003 16.597.024 9.6.023 19.201.02 9.253 0 18.506.013l7.868.006q5.473.004 10.945.022l3.309-.002 2.99.013 2.613.005C148 23 148 23 149 24c.1 1.988.13 3.979.133 5.969l.004 3.668-.012 3.863.012 3.863-.004 3.668-.004 3.393C149 51 149 51 148 52c-1.67.096-3.345.122-5.018.12l-3.293.004-3.644-.01h-3.814q-5.19-.001-10.381-.013c-3.613-.006-7.226-.006-10.839-.008q-10.269-.005-20.537-.021-11.688-.016-23.376-.022Q43.049 52.034 19 52c-1.25-2.501-1.03-4.003-.879-6.79l.147-2.85.17-2.985.158-3.008Q18.79 32.683 19 29h-2l1-4c7.795-1.69 15.193-2.285 23.157-2.243" fill="#ffffff"/><path d="M77 69h33c.04 16.391.04 16.391.049 23.363q.008 7.144.026 14.288.016 5.758.02 11.515.003 2.2.01 4.4.01 3.075.009 6.148l.006 3.54C110 135 110 135 109 137H77z" fill="#ffffff"/><path d="M19 69h38v3h-2v-2l-34 1 1 117-3-1z" fill="#ffffff"/><path d="M17 27h4v23l126 1V33l2-1c.029 3.146.047 6.292.063 9.438l.025 2.72.01 2.588.016 2.396C149 51 149 51 148 52c-1.67.096-3.345.122-5.018.12l-3.293.004-3.644-.01h-3.814q-5.19-.001-10.381-.013c-3.613-.006-7.226-.006-10.839-.008q-10.269-.005-20.537-.021-11.688-.016-23.376-.022Q43.049 52.034 19 52c-1.25-2.501-1.03-4.003-.879-6.79l.147-2.85.17-2.985.158-3.008Q18.79 32.683 19 29h-2z" fill="#ffffff"/><path d="m168 24 2 1c1.119 4.625 1.124 9.213 1.07 13.942l-.015 2.343-.12 12.976q-.056 5.598-.122 11.194a3086 3086 0 0 0-.124 14.27c-.028 3.679-.069 7.359-.113 11.038q-.03 2.628-.043 5.256c-.072 12.283-1.274 22.711-6.533 33.981h-2l.586-1.617.789-2.258.773-2.18c3.174-10.977 3.196-21.607 3.266-32.953q.028-2.904.059-5.809c.05-5.066.09-10.133.128-15.2.04-5.182.091-10.364.141-15.546Q167.886 39.22 168 24" fill="#ffffff"/><path d="M188 31c7.73 3.305 12.43 11.063 15.992 18.348 2.93 7.712 3.315 14.72 3.309 22.902l.013 3.55q.008 3.712.002 7.423c-.003 3.737.02 7.474.045 11.21.032 12.52-.238 24.39-3.361 36.567h-2c-.256-7.293-.256-7.293 1-10.762 1.742-5.993 1.245-12.302 1.195-18.484l-.008-4.14q-.014-5.418-.05-10.835c-.02-3.694-.03-7.388-.04-11.082Q204.066 64.848 204 54h-2l-1.187-2.937C197.524 43.456 193.598 37.119 188 31" fill="#ffffff"/><path d="M19 69h38v3h-2v-2l-34 1c.04 7.822.04 7.822.09 15.644.016 6.209-.261 12.202-1.09 18.356h-1z" fill="#ffffff"/><path d="M108 102h1c1.268 6.797 1.111 13.543 1.063 20.438l-.014 3.662q-.018 4.45-.049 8.9h-2l-2-5 1-1a106 106 0 0 0 .063-5.496l-.024-3.381-.078-7.11-.023-3.384-.036-3.123C107 104 107 104 108 102" fill="#ffffff"/><path d="M77 156h2q.25 6.381.482 12.762.08 2.173.166 4.345.122 3.117.23 6.233l.144 3.793C80 186 80 186 79 187l9 1v1H77z" fill="#ffffff"/><path d="M206 88h1c.62 28.933.62 28.933-3 43h-2c-.253-7.223-.253-7.223.938-10.875 1.814-5.99 1.805-12.356 2.187-18.562l.262-3.952q.315-4.805.613-9.611" fill="#ffffff"/><path d="M17 27h4v23h-3l1-21h-2z" fill="#ffffff"/><path d="M188 31c8.39 3.606 12.828 11.854 16.188 19.91L205 53l-3 1-1.187-2.937C197.524 43.456 193.598 37.119 188 31" fill="#ffffff"/><path d="M19 69h38v3h-2v-2l-36 1z" fill="#ffffff"/><path d="M193 152c-1.25 3.653-1.671 4.78-5 7l-2-2c4.75-5 4.75-5 7-5" fill="#ffffff"/><path d="M17 27h4v8c-2-3-2-3-2-6h-2z" fill="#ffffff"/></svg>