<?xml version="1.0" encoding="UTF-8"?>
<svg version="1.1" xmlns="http://www.w3.org/2000/svg" width="225" height="205">
<path d="M0 0 C74.25 0 148.5 0 225 0 C225 67.65 225 135.3 225 205 C150.75 205 76.5 205 0 205 C0 137.35 0 69.7 0 0 Z " fill="#F9FAFA" transform="translate(0,0)"/>
<path d="M0 0 C10.91482157 1.47935637 19.72971438 5.81495081 26.98046875 14.32421875 C33.1451347 22.69712325 37.08028631 31.71375447 37.16113281 42.19482422 C37.17074036 43.20713104 37.1803479 44.21943787 37.19024658 45.26242065 C37.1966214 46.89209274 37.1966214 46.89209274 37.203125 48.5546875 C37.20882507 49.68842804 37.21452515 50.82216858 37.22039795 51.99026489 C37.22983879 54.39258902 37.23637829 56.79492604 37.24023438 59.19726562 C37.24987271 62.82706202 37.28087757 66.45627552 37.3125 70.0859375 C37.36800839 82.06094419 37.31045198 93.42316615 34 105 C33.77022461 105.80469727 33.54044922 106.60939453 33.30371094 107.43847656 C26.75158233 128.23352392 13.87006558 144.92166332 -5.41967773 155.3503418 C-18.66740497 162.11406666 -32.25286494 164.48453113 -47.0546875 164.29296875 C-48.32224884 164.28872391 -49.58981018 164.28447906 -50.89578247 164.28010559 C-54.21336123 164.26630957 -57.53047407 164.23951419 -60.84790039 164.20599365 C-64.254011 164.174919 -67.66019272 164.16135545 -71.06640625 164.14648438 C-77.71129969 164.1162253 -84.35506536 164.0574674 -91 164 C-91 153.11 -91 142.22 -91 131 C-87.52984375 130.97421875 -84.0596875 130.9484375 -80.484375 130.921875 C-77.08846246 130.88335936 -73.6926969 130.83822974 -70.296875 130.79248047 C-67.95384855 130.76441834 -65.61073003 130.74313115 -63.26757812 130.72900391 C-59.88103594 130.70736927 -56.49558379 130.66061406 -53.109375 130.609375 C-52.07762146 130.60814636 -51.04586792 130.60691772 -49.98284912 130.60565186 C-36.68172694 130.34340639 -24.70737912 125.38829832 -14.8125 116.5 C-1.37533173 102.21960862 -0.55088111 83.56345335 -0.48828125 65.13671875 C-0.47140138 63.24956622 -0.45324679 61.3624247 -0.43388367 59.47529602 C-0.38673641 54.55176234 -0.35670024 49.62827333 -0.33044434 44.70458984 C-0.30045913 39.66299622 -0.25399133 34.62155606 -0.20898438 29.58007812 C-0.12335349 19.72013296 -0.0558311 9.86015585 0 0 Z " fill="#020202" transform="translate(169,24)"/>
<path d="M0 0 C11.88 0 23.76 0 36 0 C36 38.94 36 77.88 36 118 C24.12 118 12.24 118 0 118 C0 79.06 0 40.12 0 0 Z " fill="#010101" transform="translate(20,70)"/>
<path d="M0 0 C41.91 0 83.82 0 127 0 C127 8.91 127 17.82 127 27 C85.09 27 43.18 27 0 27 C0 18.09 0 9.18 0 0 Z " fill="#000000" transform="translate(20,24)"/>
<path d="M0 0 C9.9 0 19.8 0 30 0 C30 21.78 30 43.56 30 66 C20.1 66 10.2 66 0 66 C0 44.22 0 22.44 0 0 Z " fill="#010101" transform="translate(78,70)"/>
<path d="M0 0 C0 3 0 3 -2.3125 5.5 C-3.199375 6.325 -4.08625 7.15 -5 8 C-5.598125 8.598125 -6.19625 9.19625 -6.8125 9.8125 C-7.204375 10.204375 -7.59625 10.59625 -8 11 C-8 10.34 -8 9.68 -8 9 C-8.66 8.67 -9.32 8.34 -10 8 C-9.44570312 7.59007812 -8.89140625 7.18015625 -8.3203125 6.7578125 C-7.59585938 6.21898437 -6.87140625 5.68015625 -6.125 5.125 C-5.04605469 4.32449219 -5.04605469 4.32449219 -3.9453125 3.5078125 C-1.91747368 2.00126838 -1.91747368 2.00126838 0 0 Z " fill="#282828" transform="translate(154,140)"/>
</svg>
